<?xml version="1.0" standalone="no"?>
<!DOCTYPE svg PUBLIC "-//W3C//DTD SVG 20010904//EN"
 "http://www.w3.org/TR/2001/REC-SVG-20010904/DTD/svg10.dtd">
<svg version="1.0" xmlns="http://www.w3.org/2000/svg"
 width="1024.000000pt" height="1024.000000pt" viewBox="0 0 1024.000000 1024.000000"
 preserveAspectRatio="xMidYMid meet">
<metadata>
Created by potrace 1.11, written by Peter Selinger 2001-2013
</metadata>
<g transform="translate(0.000000,1024.000000) scale(0.100000,-0.100000)"
fill="#000000" stroke="none">
<path d="M8088 8765 c-2 -1 -50 -6 -108 -10 -57 -4 -107 -8 -110 -10 -3 -1
-30 -6 -61 -9 -31 -4 -65 -8 -75 -10 -17 -3 -60 -11 -124 -23 -14 -2 -70 -15
-125 -29 -55 -13 -108 -26 -119 -29 -116 -28 -325 -110 -465 -182 -93 -48
-271 -159 -325 -203 -197 -161 -342 -333 -454 -540 -79 -148 -138 -345 -159
-535 -15 -134 -8 -389 13 -510 27 -156 91 -340 157 -450 72 -121 99 -162 157
-235 148 -186 377 -380 643 -544 97 -59 133 -80 245 -142 26 -15 61 -34 77
-44 63 -37 136 -76 315 -168 840 -431 938 -487 1158 -660 70 -55 197 -179 247
-242 102 -128 175 -299 194 -454 8 -71 7 -247 -2 -301 -3 -16 -9 -50 -12 -75
-19 -116 -96 -283 -179 -385 -157 -192 -424 -329 -746 -380 -25 -4 -53 -9 -62
-10 -16 -3 -70 -9 -188 -21 -124 -11 -406 -6 -530 11 -19 2 -53 7 -75 10 -23
3 -52 7 -65 10 -13 3 -40 7 -60 10 -140 21 -414 95 -593 159 -248 91 -488 217
-648 342 -30 24 -59 44 -65 44 -5 0 -9 1046 -9 2752 l0 2753 -393 1 -393 1 4
-2646 c2 -1455 7 -2680 10 -2721 11 -144 18 -215 26 -272 4 -32 4 -58 1 -58
-4 0 -41 56 -81 125 -41 69 -79 133 -84 143 -11 18 -42 67 -111 175 -48 73
-97 150 -190 295 -32 51 -87 136 -121 189 -35 52 -63 97 -63 98 0 3 -185 294
-197 311 -4 5 -12 18 -18 27 -5 9 -107 168 -225 353 -118 184 -219 343 -225
351 -5 9 -43 67 -83 129 -39 62 -72 117 -72 123 0 5 -4 11 -8 13 -5 2 -57 81
-118 175 -60 95 -130 205 -156 245 -26 40 -72 114 -103 163 -31 50 -94 149
-140 220 -46 72 -119 186 -163 255 -44 69 -177 278 -297 465 -203 316 -272
425 -335 525 -116 185 -175 276 -182 278 -4 2 -8 7 -8 12 0 5 -80 134 -178
287 -98 153 -244 382 -325 509 l-147 232 -510 -1 -510 0 0 -3347 0 -3347 394
0 395 0 -4 2706 c-2 1488 -6 2735 -8 2771 -9 127 -17 215 -22 242 -10 54 16
39 42 -24 50 -117 129 -262 219 -401 49 -77 94 -146 99 -155 6 -9 19 -30 30
-47 11 -16 25 -37 30 -47 6 -10 93 -146 195 -303 198 -307 353 -546 685 -1060
116 -179 256 -396 312 -483 56 -86 125 -193 153 -237 28 -44 97 -151 153 -237
56 -87 174 -269 261 -405 88 -137 196 -304 241 -373 99 -153 134 -207 469
-725 146 -225 308 -477 361 -560 53 -82 122 -189 153 -238 31 -48 104 -160
161 -250 58 -89 109 -165 113 -168 5 -3 224 -6 487 -6 l478 0 -1 144 c-1 98 2
139 9 130 11 -16 155 -99 155 -90 0 3 6 1 13 -5 54 -44 519 -177 723 -207 22
-4 46 -8 54 -10 22 -7 63 -13 260 -40 193 -26 265 -30 520 -29 214 0 340 6
430 19 14 2 50 6 80 10 30 3 67 8 82 11 15 3 39 7 55 9 221 29 523 120 732
221 329 158 554 356 725 634 106 173 158 314 202 555 26 136 26 501 1 630 -47
246 -143 459 -302 670 -123 164 -344 371 -560 527 -180 129 -553 343 -869 499
-149 74 -154 77 -421 214 -424 218 -630 355 -791 528 -126 135 -219 313 -239
457 -3 25 -9 59 -11 75 -10 53 -6 228 6 300 46 285 236 516 552 672 49 24 98
46 107 48 9 2 36 11 61 20 25 9 79 24 120 35 70 17 105 24 190 36 19 3 49 7
65 10 147 23 571 23 715 0 14 -2 52 -8 85 -12 33 -4 62 -8 65 -9 3 0 28 -4 55
-9 73 -11 309 -71 390 -99 154 -54 321 -132 427 -200 29 -18 64 -39 76 -46
l22 -12 0 440 0 441 -47 24 c-136 68 -452 152 -653 172 -19 2 -54 6 -77 9 -23
3 -72 8 -110 10 -37 3 -90 8 -118 11 -53 5 -622 14 -627 9z"/>
</g>
</svg>
